<?xml version="1.0" standalone="no"?>
<!DOCTYPE svg PUBLIC "-//W3C//DTD SVG 20010904//EN"
 "http://www.w3.org/TR/2001/REC-SVG-20010904/DTD/svg10.dtd">
<svg version="1.0" xmlns="http://www.w3.org/2000/svg"
 width="275.000000pt" height="183.000000pt" viewBox="0 0 275.000000 183.000000"
 preserveAspectRatio="xMidYMid meet">
<metadata>
Created by potrace 1.10, written by Peter Selinger 2001-2011
</metadata>
<g transform="translate(0.000000,183.000000) scale(0.050000,-0.050000)"
fill="#000000" stroke="none">
<path d="M2530 3480 c-1105 -168 -1726 -1357 -1229 -2350 603 -1203 2354
-1191 2939 20 570 1183 -416 2526 -1710 2330z m576 -172 c156 -35 433 -156
514 -224 l50 -43 -373 0 -373 -1 -197 -223 -197 -222 -6 221 -5 222 -301 6
c-166 3 -305 2 -310 -2 -4 -5 -8 -176 -7 -380 l1 -372 780 -870 781 -870 -97
-44 c-706 -323 -1599 10 -1938 724 -528 1110 471 2347 1678 2078z m720 -396
c643 -634 559 -1724 -173 -2248 l-93 -66 0 396 0 396 -340 370 c-187 203 -338
376 -335 385 11 33 787 872 808 874 12 0 72 -48 133 -107z"/>
<path d="M1900 2030 l0 -110 245 -272 c135 -150 274 -305 309 -345 l64 -73 1
125 1 125 -302 330 c-350 382 -318 360 -318 220z"/>
<path d="M1900 1548 l0 -221 310 -333 310 -334 0 217 0 216 -252 279 c-138
153 -277 305 -310 338 l-58 59 0 -221z"/>
</g>
</svg>
