<?xml version="1.0" standalone="no"?>
<!DOCTYPE svg PUBLIC "-//W3C//DTD SVG 20010904//EN"
 "http://www.w3.org/TR/2001/REC-SVG-20010904/DTD/svg10.dtd">
<svg version="1.0" xmlns="http://www.w3.org/2000/svg"
 width="495.000000pt" height="360.000000pt" viewBox="0 0 495.000000 360.000000"
 preserveAspectRatio="xMidYMid meet">

<g transform="translate(0.000000,360.000000) scale(0.100000,-0.100000)"
fill="#000000" stroke="none">
<path d="M2926 2221 c-481 -481 -666 -672 -660 -682 27 -44 408 -505 422 -511
21 -8 299 -10 329 -2 19 5 -9 43 -245 328 -147 177 -273 330 -281 339 -13 17
32 65 562 595 455 455 575 580 565 590 -6 6 -14 12 -18 12 -3 0 -306 -301
-674 -669z"/>
<path d="M1900 1953 l0 -548 -372 -372 c-329 -329 -370 -374 -358 -388 12 -15
117 87 942 912 510 510 928 931 928 935 0 5 -81 8 -179 8 l-179 0 -249 -255
c-136 -140 -251 -255 -255 -255 -5 0 -8 115 -8 255 l0 255 -135 0 -135 0 0
-547z"/>
<path d="M2032 1327 l-133 -133 3 -85 3 -84 120 -3 c66 -1 126 2 133 6 9 7 12
58 10 220 l-3 212 -133 -133z"/>
</g>
</svg>
